<?xml version="1.0" encoding="utf-8"?>
<svg viewBox="661.1453 311.177 196.4807 50.001" xmlns="http://www.w3.org/2000/svg">
  <path d="M 732.649 350.39 L 732.649 347.624 L 736.204 347.01 L 736.204 321.698 L 729.006 321.698 L 728.374 326.133 L 725.146 326.133 L 725.146 318.427 L 751.537 318.427 L 751.537 326.133 L 748.353 326.133 L 747.698 321.698 L 740.501 321.698 L 740.501 347.01 L 744.056 347.624 L 744.056 350.39 L 732.649 350.39 Z" fill="#0F172A"/>
  <path d="M 753.436 350.391 L 753.436 347.624 L 756.991 347.01 L 756.991 330.041 L 753.436 329.426 L 753.436 326.638 L 761.288 326.638 L 761.288 347.01 L 764.843 347.624 L 764.843 350.391 L 753.436 350.391 Z M 756.773 320.776 L 756.773 316.144 L 761.288 316.144 L 761.288 320.776 L 756.773 320.776 Z" fill="#0F172A"/>
  <path d="M 767.155 359.522 L 767.155 356.734 L 770.492 356.119 L 770.492 330.04 L 766.937 329.425 L 766.937 326.637 L 774.178 326.637 L 774.571 329.535 C 776.185 327.31 778.446 326.198 781.354 326.198 C 783.303 326.198 784.967 326.732 786.349 327.801 C 787.73 328.854 788.784 330.34 789.511 332.257 C 790.238 334.159 790.602 336.391 790.602 338.952 L 790.602 339.414 C 790.602 341.697 790.231 343.694 789.49 345.407 C 788.763 347.119 787.716 348.458 786.349 349.424 C 784.982 350.375 783.339 350.851 781.42 350.851 C 778.555 350.851 776.345 349.878 774.789 347.931 L 774.789 356.119 L 778.54 356.734 L 778.54 359.522 L 767.155 359.522 Z M 780.089 347.47 C 782.125 347.47 783.666 346.724 784.713 345.231 C 785.76 343.738 786.283 341.799 786.283 339.414 L 786.283 338.952 C 786.283 336.245 785.76 334.028 784.713 332.301 C 783.666 330.574 782.11 329.71 780.045 329.71 C 778.824 329.71 777.777 329.989 776.905 330.545 C 776.032 331.101 775.327 331.862 774.789 332.828 L 774.789 344.397 C 775.327 345.377 776.025 346.138 776.883 346.68 C 777.755 347.207 778.824 347.47 780.089 347.47 Z" fill="#0F172A"/>
  <path d="M 803.49 350.851 C 801.904 350.851 800.422 350.69 799.041 350.368 C 797.659 350.046 796.19 349.548 794.634 348.875 L 794.59 343.233 L 797.84 343.233 L 798.648 346.636 C 800.189 347.28 801.804 347.602 803.49 347.602 C 805.234 347.602 806.485 347.265 807.241 346.592 C 807.997 345.919 808.375 345.085 808.375 344.089 C 808.375 343.153 807.99 342.362 807.219 341.719 C 806.464 341.06 805.082 340.504 803.076 340.05 C 800.225 339.392 798.125 338.513 796.772 337.416 C 795.434 336.304 794.766 334.825 794.766 332.981 C 794.766 331.694 795.135 330.545 795.878 329.535 C 796.619 328.51 797.651 327.698 798.975 327.098 C 800.298 326.498 801.839 326.198 803.599 326.198 C 805.387 326.198 806.914 326.403 808.179 326.813 C 809.458 327.222 810.571 327.771 811.516 328.459 L 811.734 333.881 L 808.506 333.881 L 807.808 330.72 C 807.299 330.34 806.696 330.047 805.997 329.842 C 805.301 329.637 804.5 329.535 803.599 329.535 C 802.26 329.535 801.17 329.849 800.327 330.479 C 799.498 331.108 799.084 331.898 799.084 332.85 C 799.084 333.406 799.2 333.889 799.433 334.299 C 799.68 334.708 800.145 335.081 800.829 335.418 C 801.512 335.74 802.516 336.062 803.839 336.384 C 807.125 337.16 809.416 338.148 810.709 339.348 C 812.018 340.548 812.672 342.026 812.672 343.782 C 812.672 345.787 811.93 347.47 810.448 348.831 C 808.978 350.178 806.66 350.851 803.49 350.851 Z" fill="#0F172A"/>
  <path d="M 816.076 350.391 L 816.076 347.624 L 819.632 347.01 L 819.632 330.041 L 816.076 329.426 L 816.076 326.638 L 823.928 326.638 L 823.928 347.01 L 827.483 347.624 L 827.483 350.391 L 816.076 350.391 Z M 819.414 320.776 L 819.414 316.144 L 823.928 316.144 L 823.928 320.776 L 819.414 320.776 Z" fill="#0F172A"/>
  <path d="M 838.782 350.764 C 837.038 350.764 835.65 350.252 834.617 349.227 C 833.599 348.188 833.09 346.534 833.09 344.266 L 833.09 329.843 L 829.361 329.843 L 829.361 326.638 L 833.09 326.638 L 833.09 320.908 L 837.387 320.908 L 837.387 326.638 L 842.512 326.638 L 842.512 329.843 L 837.387 329.843 L 837.387 344.266 C 837.387 345.408 837.612 346.249 838.063 346.791 C 838.513 347.332 839.117 347.603 839.874 347.603 C 840.382 347.603 840.949 347.559 841.574 347.471 C 842.2 347.369 842.688 347.281 843.035 347.208 L 843.625 350.04 C 842.999 350.23 842.229 350.398 841.313 350.544 C 840.412 350.691 839.567 350.764 838.782 350.764 Z" fill="#0F172A"/>
  <path d="M 846.219 350.391 L 846.219 347.624 L 849.774 347.01 L 849.774 330.041 L 846.219 329.426 L 846.219 326.638 L 854.071 326.638 L 854.071 347.01 L 857.626 347.624 L 857.626 350.391 L 846.219 350.391 Z M 849.556 320.776 L 849.556 316.144 L 854.071 316.144 L 854.071 320.776 L 849.556 320.776 Z" fill="#0F172A"/>
  <path d="M 683.161 360.081 C 683.126 360.02 683.063 359.983 682.994 359.983 L 679.723 359.983 L 679.723 359.228 L 682.532 359.228 C 682.64 359.228 682.724 359.135 682.717 359.026 C 682.619 357.389 681.335 356.076 679.723 355.955 L 679.723 355.582 C 679.723 355.451 679.618 355.344 679.488 355.344 L 679.469 355.344 C 679.339 355.344 679.234 355.451 679.234 355.582 L 679.234 355.955 C 677.622 356.076 676.338 357.389 676.24 359.026 C 676.234 359.135 676.318 359.228 676.426 359.228 L 679.234 359.228 L 679.234 359.983 L 675.963 359.983 C 675.894 359.983 675.831 360.02 675.796 360.081 L 675.338 360.886 C 675.264 361.016 675.357 361.178 675.505 361.178 L 683.453 361.178 C 683.601 361.178 683.693 361.015 683.62 360.886 L 683.161 360.081 Z M 682.166 358.554 L 681.453 358.554 C 681.393 357.199 680.371 356.526 680.371 356.526 C 681.945 357.145 682.166 358.554 682.166 358.554 Z" fill="black"/>
  <path d="M 676.146 351.918 C 673.089 347.044 665.251 333.809 665.162 326.104 C 665.025 314.314 673.589 311.177 673.589 311.177 C 671.417 311.177 660.995 314.629 661.147 326.103 C 661.252 333.978 667.306 341.186 675.933 352.011 C 676.003 351.979 676.074 351.948 676.146 351.918 Z" fill="black"/>
  <path d="M 666.148 326.354 C 666.232 332.48 671.951 343.417 677.218 352.011 C 677.413 351.953 677.611 351.901 677.812 351.857 C 676.27 346.852 672.792 334.65 672.792 326.357 C 672.792 314.532 677.166 311.177 677.166 311.177 C 674.884 311.177 665.988 314.846 666.148 326.354 Z" fill="black"/>
  <path d="M 678.517 352.009 C 678.694 351.996 678.874 351.988 679.056 351.988 C 679.242 351.988 679.426 351.996 679.609 352.011 C 680.824 346.45 683.646 332.857 683.646 326.543 C 683.646 318.496 681.139 311.177 679.062 311.177 C 676.986 311.177 674.479 318.496 674.479 326.543 C 674.48 332.857 677.301 346.448 678.517 352.009 Z" fill="black"/>
  <path d="M 681.146 351.857 C 681.333 351.901 681.517 351.953 681.698 352.011 C 686.588 343.417 691.898 332.48 691.977 326.354 C 692.125 314.846 683.865 311.177 681.746 311.177 C 681.746 311.177 685.808 314.532 685.808 326.357 C 685.808 334.65 682.578 346.852 681.146 351.857 Z" fill="black"/>
  <path d="M 684.536 311.177 C 684.536 311.177 693.099 314.314 692.963 326.103 C 692.873 333.809 685.036 347.044 681.979 351.918 C 682.051 351.948 682.122 351.979 682.192 352.011 C 690.819 341.186 696.873 333.978 696.978 326.103 C 697.129 314.629 686.708 311.177 684.536 311.177 Z" fill="black"/>
</svg>